<svg xmlns="http://www.w3.org/2000/svg" version="1.1" xmlns:xlink="http://www.w3.org/1999/xlink" width="1500" height="1500" viewBox="0 0 1500 1500"><rect width="1500" height="1500" x="0" y="0" id="background" stroke="transparent" fill="#ffffff"></rect><svg xml:space="preserve" width="1000" height="1000" data-version="2" data-id="lg_2Rlkv24K0AmW6QFiIP" viewBox="0 0 429 774" x="250" y="250"><rect width="100%" height="100%" fill="transparent"></rect><path fill="#1f09ff" d="M403.98 102.781h-63.16V28.674c0-11.79-9.264-21.053-21.054-21.053H109.234c-11.79 0-21.053 9.263-21.053 21.053v74.107H25.02c-11.79 0-21.054 9.264-21.054 21.053v526.332c0 11.79 9.264 21.053 21.054 21.053h63.16v74.107c0 11.79 9.263 21.054 21.053 21.054h210.532c11.79 0 21.053-9.264 21.053-21.054V671.22h63.16c11.79 0 21.053-9.263 21.053-21.053V123.834c0-11.79-9.263-21.053-21.053-21.053m-68.213 42.107-37.054 18.527-37.054-18.527zm-205.48-95.161h168.426v53.054H130.287zm37.054 95.16 84.213 42.107-37.054 18.527-121.267-60.633zM46.074 167.626l121.267 60.634-37.054 19.369-84.213-42.107zm0 84.213 37.054 18.527-37.054 19.37zm0 84.213 289.693 144.847-37.054 19.369-252.639-126.32zm0 84.213 205.48 102.74-37.054 19.37L46.074 458.16zm0 206.322V588.69l37.054 18.527zm0-84.213v-37.896l121.267 60.634-37.054 19.369zm252.639 181.058H130.287v-53.054h168.426zm84.213-94.319h-79.16l79.16-40.422zm0-86.739-173.479 86.74H135.34l247.586-124.636zm0-84.213-37.054-18.527 37.054-19.369zm0-84.213-84.213 42.107-37.054-18.527 121.267-61.476zm0-84.213L214.5 373.947l-37.054-18.527 205.48-103.582zm0-84.213-252.639 126.32-37.054-18.527 289.693-145.689z"></path></svg></svg>